<svg xmlns="http://www.w3.org/2000/svg" width="100%" height="100%" viewBox="0 0 347 40" fill-rule="evenodd" stroke-linejoin="round" stroke-miterlimit="2" xmlns:v="https://vecta.io/nano"><clipPath id="A"><path d="M1.8 9.75L18.675.15V39.6l-6.75-3.9V12.6L1.8 18.525V9.75z"/></clipPath><g clip-path="url(#A)"><path d="M0 0h41.4v39.675H0z" fill="url(#C)" fill-rule="nonzero"/></g><clipPath id="B"><path d="M37.05 9.75L20.175.15V39.6l6.75-3.9V24.6l5.1 2.925-.075-7.575-5.025-2.925V12.6l10.125 5.925V9.75z"/></clipPath><g clip-path="url(#B)"><path d="M.225 0h41.4v39.675H.225z" fill="url(#D)" fill-rule="nonzero"/></g><ellipse cx="30.88" cy="33.907" rx="5.795" ry="5.768" fill="#425066"/><g fill="#fff" fill-rule="nonzero"><path d="M28.572 37.397l-1.691-.99-.031-.796c-.031-.765-.104-.756.236-.887.502-.194.594-.123 1.23.867l.667.97c.03 0 .328-.276.666-.613s.646-.612.687-.612.082.694.082 1.531l-.072 1.52c-.051 0-.84-.449-1.774-.99zm2.769 1v-3.826l.646-.378.636-.367.017 1.903-.022 1.945-.734.417-.543.306zm2.212-2.562l.03-1.256c.061-.052.434-.274.762-.458l.585-.326v2.551l-.646.368-.718.357c-.041 0-.013-.562-.013-1.236z"/><path d="M28.449 34.877c-.594-.949-.779-.945-1.598-.527-.022.011-.022-.116-.022-1.351v-1.245l.441.255 1.764 1.01 1.333.756-.016.419c-.013.783.047.428-.579.979-.359.316-.687.571-.718.571s-.297-.388-.605-.867zm5.968-1.562v-1.296l-1.6-.918-1.977-1.072c-.018-.008-1.66 1.004-2.675 1.585-.021.012-.1-.043-.3-.156l-.25-.145 3.254-1.896c.062 0 3.804 2.163 3.938 2.276.092.071.099.513.079.921-.021.5-.049.426-.233.558l-.236.143z"/></g><g transform="matrix(.75 0 0 .75 -11.55 22.8615)"><text x="69" y="11" font-family="Arial-BoldMT, Arial, sans-serif" font-weight="700" font-size="40" fill="#425066">T<tspan x="90.465px 112.711px" y="11px 11px">en</tspan>sorBoard</text><text x="326.07" y="11" font-family="ArialMT, Arial, sans-serif" font-size="40" fill="#425066">Reducer</text></g><defs><linearGradient id="C" x1="0" y1="19.838" x2="41.4" y2="19.838" gradientUnits="userSpaceOnUse"><stop offset="0" stop-color="#ff6f00"/><stop offset="1" stop-color="#ffa800"/></linearGradient><linearGradient id="D" x1=".225" y1="19.838" x2="41.625" y2="19.838" gradientUnits="userSpaceOnUse"><stop offset="0" stop-color="#ff6f00"/><stop offset="1" stop-color="#ffa800"/></linearGradient></defs></svg>
