<svg xmlns="http://www.w3.org/2000/svg" width="100%" height="100%" viewBox="0 0 38 38" fill-rule="evenodd" stroke-linejoin="round" stroke-miterlimit="2" xmlns:v="https://vecta.io/nano"><clipPath id="A"><path d="M1.608 8.709L16.681.134v35.237l-6.029-3.483V11.254l-9.044 5.293V8.709z"/></clipPath><g clip-path="url(#A)"><path d="M0 0h36.979v35.438H0z" fill="url(#C)" fill-rule="nonzero"/></g><clipPath id="B"><path d="M33.094 8.709L18.021.134v35.237l6.029-3.483v-9.915l4.555 2.613-.067-6.766-4.488-2.613v-3.953l9.044 5.293V8.709z"/></clipPath><g clip-path="url(#B)"><path d="M.201 0H37.18v35.438H.201z" fill="url(#D)" fill-rule="nonzero"/></g><circle cx="28.013" cy="31.426" r="5.944" fill="#425066"/><path d="M25.647 35.023l-1.735-1.021-.032-.82c-.032-.789-.106-.78.242-.915.515-.2.61-.126 1.262.894l.683.999c.032 0 .337-.284.684-.631s.662-.631.705-.631.084.715.084 1.578l-.074 1.567c-.053 0-.862-.463-1.819-1.02zm2.839 1.03V32.11l.663-.39.652-.378.031 1.956c.021 1.493-.01 1.977-.105 2.04l-.684.4-.557.315zm2.269-2.64l.03-1.295c.063-.053.446-.282.782-.471l.6-.337v2.629l-.663.379-.736.368c-.042 0-.013-.579-.013-1.273zm-5.234-.988c-.61-.978-.8-.973-1.64-.543-.022.012-.022-.119-.022-1.392v-1.283l.452.263 1.809 1.041 1.367.778-.017.433c-.012.806.049.44-.593 1.008-.368.326-.704.589-.736.589s-.305-.4-.62-.894zm6.12-1.609v-1.335L30 28.534l-2.028-1.104c-.018-.009-.348.189-1.389.789-1.241.715-1.431.788-1.662.683-.147-.063-.21-.158-.158-.21.095-.084 3.187-1.893 3.239-1.893.063 0 3.902 2.229 4.039 2.345.094.074.102.529.081.95-.022.515-.05.438-.239.575l-.242.147z" fill="#fff" fill-rule="nonzero"/><defs><linearGradient id="C" x1="0" y1="17.719" x2="36.979" y2="17.719" gradientUnits="userSpaceOnUse"><stop offset="0" stop-color="#ff6f00"/><stop offset="1" stop-color="#ffa800"/></linearGradient><linearGradient id="D" x1=".201" y1="17.719" x2="37.18" y2="17.719" gradientUnits="userSpaceOnUse"><stop offset="0" stop-color="#ff6f00"/><stop offset="1" stop-color="#ffa800"/></linearGradient></defs></svg>
